<svg width="400" height="300" viewBox="0 0 400 300" fill="none" xmlns="http://www.w3.org/2000/svg">
  <!-- Fundo escuro com gradiente -->
  <rect width="400" height="300" rx="12" fill="url(#paint0_linear)" />
  
  <!-- Decoração - forma circular -->
  <circle cx="200" cy="150" r="80" stroke="#FF8A00" stroke-opacity="0.4" stroke-width="40" />
  
  <!-- Elementos de treino - haltere estilizado -->
  <rect x="120" y="140" width="160" height="20" rx="10" fill="#FF8A00" fill-opacity="0.7" />
  <circle cx="100" cy="150" r="25" fill="#FF8A00" fill-opacity="0.5" stroke="white" stroke-width="2" />
  <circle cx="300" cy="150" r="25" fill="#FF8A00" fill-opacity="0.5" stroke="white" stroke-width="2" />
  
  <!-- Estrelas para representar iniciante -->
  <path d="M160 90 L163 97 L170 98 L165 103 L166 110 L160 107 L154 110 L155 103 L150 98 L157 97 Z" fill="white" />
  <path d="M200 70 L204 80 L215 81 L208 88 L210 98 L200 93 L190 98 L192 88 L185 81 L196 80 Z" fill="white" />
  <path d="M240 90 L243 97 L250 98 L245 103 L246 110 L240 107 L234 110 L235 103 L230 98 L237 97 Z" fill="white" />
  
  <!-- Título -->
  <text x="200" y="240" fill="white" font-family="Arial, sans-serif" font-size="20" font-weight="bold" text-anchor="middle">PACK INICIANTE</text>
  <text x="200" y="260" fill="white" font-family="Arial, sans-serif" font-size="14" text-anchor="middle">COMPLETO</text>
  
  <!-- Definição do gradiente de fundo -->
  <defs>
    <linearGradient id="paint0_linear" x1="0" y1="0" x2="400" y2="300" gradientUnits="userSpaceOnUse">
      <stop offset="0" stop-color="#1A1A1A" />
      <stop offset="1" stop-color="#0D0D0D" />
    </linearGradient>
  </defs>
</svg> 