<?xml version="1.0" encoding="UTF-8"?>
<svg width="800" height="600" viewBox="0 0 800 600" fill="none" xmlns="http://www.w3.org/2000/svg">
  <!-- Background gradient -->
  <rect width="800" height="600" fill="url(#gradient1)"/>
  
  <!-- Decorative elements -->
  <circle cx="400" cy="300" r="250" fill="url(#gradient2)" opacity="0.1"/>
  <circle cx="150" cy="150" r="120" fill="url(#gradient3)" opacity="0.1"/>
  <circle cx="650" cy="450" r="180" fill="url(#gradient3)" opacity="0.1"/>
  
  <!-- Modern haircut silhouette -->
  <path d="M300 350 Q400 300 500 350 Q550 400 500 450 Q400 500 300 450 Q250 400 300 350" fill="url(#gradient4)" opacity="0.7"/>
  <path d="M350 250 Q400 200 450 250 Q500 300 450 350 Q400 400 350 350 Q300 300 350 250" fill="url(#gradient5)" opacity="0.5"/>
  
  <!-- Styling elements -->
  <path d="M200 400 L600 400" stroke="url(#gradient6)" stroke-width="2" opacity="0.3"/>
  <path d="M200 450 L600 450" stroke="url(#gradient6)" stroke-width="2" opacity="0.3"/>
  
  <!-- Gradients -->
  <defs>
    <linearGradient id="gradient1" x1="0" y1="0" x2="800" y2="600" gradientUnits="userSpaceOnUse">
      <stop offset="0%" stop-color="#0A0A0A"/>
      <stop offset="100%" stop-color="#1A1A1A"/>
    </linearGradient>
    <linearGradient id="gradient2" x1="0" y1="0" x2="800" y2="600" gradientUnits="userSpaceOnUse">
      <stop offset="0%" stop-color="#FF4D4D"/>
      <stop offset="100%" stop-color="#FF6B6B"/>
    </linearGradient>
    <linearGradient id="gradient3" x1="0" y1="0" x2="800" y2="600" gradientUnits="userSpaceOnUse">
      <stop offset="0%" stop-color="#FF6B6B"/>
      <stop offset="100%" stop-color="#FF4D4D"/>
    </linearGradient>
    <linearGradient id="gradient4" x1="0" y1="0" x2="800" y2="600" gradientUnits="userSpaceOnUse">
      <stop offset="0%" stop-color="#FFFFFF"/>
      <stop offset="100%" stop-color="#A3A3A3"/>
    </linearGradient>
    <linearGradient id="gradient5" x1="0" y1="0" x2="800" y2="600" gradientUnits="userSpaceOnUse">
      <stop offset="0%" stop-color="#A3A3A3"/>
      <stop offset="100%" stop-color="#FFFFFF"/>
    </linearGradient>
    <linearGradient id="gradient6" x1="0" y1="0" x2="800" y2="600" gradientUnits="userSpaceOnUse">
      <stop offset="0%" stop-color="#FF4D4D"/>
      <stop offset="100%" stop-color="#FF6B6B"/>
    </linearGradient>
  </defs>
</svg> 