<?xml version="1.0" encoding="UTF-8"?>
<svg width="800" height="600" viewBox="0 0 800 600" fill="none" xmlns="http://www.w3.org/2000/svg">
  <!-- Background gradient -->
  <rect width="800" height="600" fill="url(#gradient1)"/>
  
  <!-- Decorative elements -->
  <circle cx="400" cy="300" r="200" fill="url(#gradient2)" opacity="0.1"/>
  <circle cx="200" cy="200" r="100" fill="url(#gradient3)" opacity="0.1"/>
  <circle cx="600" cy="400" r="150" fill="url(#gradient3)" opacity="0.1"/>
  
  <!-- Scissors icon -->
  <path d="M400 200 L450 300 L400 400 L350 300 Z" fill="url(#gradient4)" opacity="0.8"/>
  <path d="M350 300 L400 200 L450 300 L400 400 Z" fill="url(#gradient5)" opacity="0.8"/>
  
  <!-- Haircut silhouette -->
  <path d="M300 400 Q400 350 500 400 Q550 450 500 500 Q400 550 300 500 Q250 450 300 400" fill="url(#gradient6)" opacity="0.6"/>
  
  <!-- Gradients -->
  <defs>
    <linearGradient id="gradient1" x1="0" y1="0" x2="800" y2="600" gradientUnits="userSpaceOnUse">
      <stop offset="0%" stop-color="#0A0A0A"/>
      <stop offset="100%" stop-color="#1A1A1A"/>
    </linearGradient>
    <linearGradient id="gradient2" x1="0" y1="0" x2="800" y2="600" gradientUnits="userSpaceOnUse">
      <stop offset="0%" stop-color="#FF4D4D"/>
      <stop offset="100%" stop-color="#FF6B6B"/>
    </linearGradient>
    <linearGradient id="gradient3" x1="0" y1="0" x2="800" y2="600" gradientUnits="userSpaceOnUse">
      <stop offset="0%" stop-color="#FF6B6B"/>
      <stop offset="100%" stop-color="#FF4D4D"/>
    </linearGradient>
    <linearGradient id="gradient4" x1="0" y1="0" x2="800" y2="600" gradientUnits="userSpaceOnUse">
      <stop offset="0%" stop-color="#FFFFFF"/>
      <stop offset="100%" stop-color="#A3A3A3"/>
    </linearGradient>
    <linearGradient id="gradient5" x1="0" y1="0" x2="800" y2="600" gradientUnits="userSpaceOnUse">
      <stop offset="0%" stop-color="#A3A3A3"/>
      <stop offset="100%" stop-color="#FFFFFF"/>
    </linearGradient>
    <linearGradient id="gradient6" x1="0" y1="0" x2="800" y2="600" gradientUnits="userSpaceOnUse">
      <stop offset="0%" stop-color="#FF4D4D"/>
      <stop offset="100%" stop-color="#FF6B6B"/>
    </linearGradient>
  </defs>
</svg> 