<?xml version="1.0" encoding="UTF-8"?>
<svg width="800" height="600" viewBox="0 0 800 600" fill="none" xmlns="http://www.w3.org/2000/svg">
  <!-- Background gradient -->
  <rect width="800" height="600" fill="url(#gradient1)"/>
  
  <!-- Decorative elements -->
  <circle cx="400" cy="300" r="220" fill="url(#gradient2)" opacity="0.1"/>
  <circle cx="180" cy="180" r="110" fill="url(#gradient3)" opacity="0.1"/>
  <circle cx="620" cy="420" r="160" fill="url(#gradient3)" opacity="0.1"/>
  
  <!-- Beard silhouette -->
  <path d="M300 350 Q400 400 500 350 Q550 300 500 250 Q400 200 300 250 Q250 300 300 350" fill="url(#gradient4)" opacity="0.7"/>
  <path d="M350 300 Q400 350 450 300 Q500 250 450 200 Q400 150 350 200 Q300 250 350 300" fill="url(#gradient5)" opacity="0.5"/>
  
  <!-- Trimming elements -->
  <path d="M200 300 L600 300" stroke="url(#gradient6)" stroke-width="2" opacity="0.3"/>
  <path d="M200 350 L600 350" stroke="url(#gradient6)" stroke-width="2" opacity="0.3"/>
  
  <!-- Gradients -->
  <defs>
    <linearGradient id="gradient1" x1="0" y1="0" x2="800" y2="600" gradientUnits="userSpaceOnUse">
      <stop offset="0%" stop-color="#0A0A0A"/>
      <stop offset="100%" stop-color="#1A1A1A"/>
    </linearGradient>
    <linearGradient id="gradient2" x1="0" y1="0" x2="800" y2="600" gradientUnits="userSpaceOnUse">
      <stop offset="0%" stop-color="#FF4D4D"/>
      <stop offset="100%" stop-color="#FF6B6B"/>
    </linearGradient>
    <linearGradient id="gradient3" x1="0" y1="0" x2="800" y2="600" gradientUnits="userSpaceOnUse">
      <stop offset="0%" stop-color="#FF6B6B"/>
      <stop offset="100%" stop-color="#FF4D4D"/>
    </linearGradient>
    <linearGradient id="gradient4" x1="0" y1="0" x2="800" y2="600" gradientUnits="userSpaceOnUse">
      <stop offset="0%" stop-color="#FFFFFF"/>
      <stop offset="100%" stop-color="#A3A3A3"/>
    </linearGradient>
    <linearGradient id="gradient5" x1="0" y1="0" x2="800" y2="600" gradientUnits="userSpaceOnUse">
      <stop offset="0%" stop-color="#A3A3A3"/>
      <stop offset="100%" stop-color="#FFFFFF"/>
    </linearGradient>
    <linearGradient id="gradient6" x1="0" y1="0" x2="800" y2="600" gradientUnits="userSpaceOnUse">
      <stop offset="0%" stop-color="#FF4D4D"/>
      <stop offset="100%" stop-color="#FF6B6B"/>
    </linearGradient>
  </defs>
</svg> 